<svg width="46" height="46" viewBox="0 0 46 46" fill="none" xmlns="http://www.w3.org/2000/svg">
<path d="M23.8184 5.05957L23.9834 5.06934C24.3647 5.11406 24.714 5.31298 24.9482 5.62305C25.2158 5.97734 25.3019 6.43616 25.1807 6.86328L23.4775 12.8604C23.4612 12.9178 23.4395 12.9734 23.416 13.0283L19.4736 26.998H21.7734C22.2419 26.998 22.6805 27.2301 22.9443 27.6172C23.0863 27.8255 23.1651 28.0645 23.1836 28.3086L25.1807 25.3789H23.5547C23.0862 25.3789 22.6477 25.1469 22.3838 24.7598C22.1201 24.3727 22.0642 23.8803 22.2354 23.4443L25.9814 13.9033L26.0293 13.7949C26.2897 13.2657 26.8554 12.9493 27.4502 13.0127C31.0297 13.3943 33.8144 15.0501 35.415 17.6309C37.0042 20.1933 37.3043 23.4698 36.334 26.8838C35.2776 30.6061 32.6488 33.9434 29.3506 36.3389C26.0479 38.7375 21.9621 40.2744 17.8682 40.2744H17.7119C17.7077 40.2744 17.7034 40.2735 17.6992 40.2734L17.666 40.2744C13.4521 40.2266 10.4448 38.6323 8.86914 35.834C7.34654 33.1296 7.35385 29.6287 8.35352 26.1104L8.35547 26.1045L8.55176 25.4238L14.0361 6.08984L14.0723 5.97754C14.2782 5.42935 14.8047 5.05963 15.3984 5.05957H23.8184Z" stroke="#281724" stroke-width="2.83333" stroke-linejoin="round"/>
</svg>
