<svg width="32" height="32" viewBox="0 0 32 32" fill="none" xmlns="http://www.w3.org/2000/svg">
<path d="M4.25894 17.5935C3.14076 15.7085 2.74916 13.4801 3.15768 11.3268C3.56621 9.17353 4.74675 7.24343 6.47764 5.89896C8.20853 4.55449 10.3707 3.88814 12.5581 4.02502C14.7455 4.1619 16.8078 5.09261 18.3575 6.64238C19.9073 8.19214 20.838 10.2544 20.9749 12.4418C21.1118 14.6292 20.4455 16.7914 19.101 18.5223C17.7565 20.2531 15.8264 21.4337 13.6731 21.8422C11.5199 22.2508 9.29149 21.8592 7.40648 20.741L7.40651 20.7409L4.29808 21.629C4.16947 21.6658 4.03338 21.6675 3.90391 21.6339C3.77443 21.6004 3.65628 21.5328 3.56171 21.4382C3.46713 21.3436 3.39957 21.2255 3.36602 21.096C3.33247 20.9665 3.33415 20.8305 3.37089 20.7018L4.25902 17.5934L4.25894 17.5935Z" stroke="#281724" stroke-width="2" stroke-linecap="round" stroke-linejoin="round"/>
<path d="M11.5078 21.9865C11.9502 23.2425 12.6657 24.3848 13.6027 25.331C14.5397 26.2772 15.6749 27.0039 16.9265 27.4586C18.1781 27.9133 19.5149 28.0849 20.8408 27.9608C22.1666 27.8367 23.4485 27.4201 24.594 26.7411L24.594 26.741L27.7024 27.6291C27.831 27.6658 27.9671 27.6675 28.0966 27.634C28.226 27.6004 28.3442 27.5328 28.4387 27.4383C28.5333 27.3437 28.6009 27.2255 28.6344 27.0961C28.668 26.9666 28.6663 26.8305 28.6296 26.7019L27.7414 23.5935L27.7415 23.5935C28.5306 22.2627 28.9634 20.751 28.9982 19.2042C29.0329 17.6574 28.6684 16.1278 27.9399 14.7629C27.2113 13.3979 26.1433 12.2438 24.8388 11.4119C23.5344 10.5799 22.0375 10.0982 20.4927 10.0132" stroke="#281724" stroke-width="2" stroke-linecap="round" stroke-linejoin="round"/>
</svg>
