<svg width="32" height="32" viewBox="0 0 32 32" fill="none" xmlns="http://www.w3.org/2000/svg">
<path d="M14.998 13.3023L11.748 7.67312C11.4171 7.09895 11.3277 6.4169 11.4995 5.77688C11.6713 5.13685 12.0902 4.59121 12.6641 4.25987C13.238 3.92853 13.9199 3.8386 14.5601 4.00985C15.2003 4.18109 15.7463 4.5995 16.0781 5.17312L21.0781 13.8334" stroke="#281724" stroke-width="2" stroke-linecap="round" stroke-linejoin="round"/>
<path d="M11.17 16.6684L6.41997 8.44114C6.25549 8.15681 6.14866 7.84285 6.10558 7.5172C6.0625 7.19156 6.08401 6.86062 6.1689 6.54329C6.25378 6.22597 6.40037 5.92849 6.60028 5.66784C6.80019 5.4072 7.04951 5.18851 7.33398 5.02427C7.61846 4.86003 7.93251 4.75346 8.25819 4.71065C8.58387 4.66784 8.91479 4.68964 9.23204 4.77479C9.54929 4.85994 9.84666 5.00677 10.1071 5.2069C10.3676 5.40703 10.5861 5.65653 10.7501 5.94114L15.0001 13.3024" stroke="#281724" stroke-width="2" stroke-linecap="round" stroke-linejoin="round"/>
<path d="M19.25 20.6636C18.587 19.5152 18.4073 18.1504 18.7505 16.8695C19.0937 15.5886 19.9317 14.4965 21.0801 13.8335L19.8301 11.6684C19.6657 11.3841 19.5588 11.0701 19.5158 10.7445C19.4727 10.4189 19.4942 10.0879 19.5791 9.77059C19.664 9.45327 19.8105 9.15578 20.0105 8.89514C20.2104 8.63449 20.4597 8.4158 20.7442 8.25156C21.0286 8.08732 21.3427 7.98075 21.6684 7.93795C21.994 7.89514 22.325 7.91693 22.6422 8.00208C22.9595 8.08723 23.2568 8.23407 23.5173 8.4342C23.7778 8.63433 23.9963 8.88383 24.1603 9.16844L26.6603 13.4986C27.3172 14.6359 27.7437 15.8914 27.9154 17.1936C28.087 18.4957 28.0005 19.8189 27.6607 21.0876C27.3209 22.3563 26.7345 23.5456 25.935 24.5877C25.1355 25.6297 24.1386 26.504 23.0011 27.1607C21.8637 27.8175 20.608 28.2437 19.3058 28.415C18.0037 28.5864 16.6805 28.4995 15.4119 28.1595C14.1432 27.8194 12.954 27.2327 11.9122 26.433C10.8703 25.6333 9.99621 24.6362 9.33976 23.4986L4.58976 15.2713C4.2589 14.6971 4.16954 14.0151 4.34132 13.3751C4.5131 12.735 4.93197 12.1894 5.50587 11.8581C6.07976 11.5267 6.76173 11.4368 7.4019 11.608C8.04207 11.7793 8.58806 12.1977 8.91988 12.7713L11.1699 16.6684" stroke="#281724" stroke-width="2" stroke-linecap="round" stroke-linejoin="round"/>
<path d="M10.1368 30.0004C8.44183 28.8244 7.02895 27.2869 6 25.4989" stroke="#281724" stroke-width="2" stroke-linecap="round" stroke-linejoin="round"/>
<path d="M22 3.875C23.141 3.87485 24.2618 4.17519 25.2498 4.74581C26.2379 5.31643 27.0582 6.1372 27.6282 7.12554" stroke="#281724" stroke-width="2" stroke-linecap="round" stroke-linejoin="round"/>
</svg>
