<svg width="32" height="32" viewBox="0 0 32 32" fill="none" xmlns="http://www.w3.org/2000/svg">
<path d="M30.0897 15.2231L27 16.7679L23 9.10768L26.1212 7.5471C26.3557 7.42986 26.6268 7.40939 26.8763 7.4901C27.1257 7.57082 27.3335 7.74626 27.4548 7.97866L30.5289 13.8658C30.5904 13.9835 30.6278 14.1123 30.639 14.2446C30.6501 14.377 30.6348 14.5102 30.5939 14.6365C30.553 14.7629 30.4874 14.8798 30.4008 14.9805C30.3142 15.0812 30.2085 15.1637 30.0897 15.2231V15.2231Z" stroke="#281724" stroke-width="2" stroke-linecap="round" stroke-linejoin="round"/>
<path d="M4.99992 16.634L1.91021 15.0892C1.79143 15.0298 1.68567 14.9473 1.5991 14.8466C1.51253 14.7459 1.44688 14.629 1.406 14.5026C1.36511 14.3763 1.3498 14.243 1.36096 14.1107C1.37212 13.9784 1.40953 13.8496 1.471 13.7319L4.54511 7.84475C4.66646 7.61236 4.87422 7.43691 5.12366 7.35619C5.3731 7.27548 5.64426 7.29594 5.87875 7.41319L8.99992 8.97377L4.99992 16.634Z" stroke="#281724" stroke-width="2" stroke-linecap="round" stroke-linejoin="round"/>
<path d="M27 16.7679L25 19.1076L20.4004 23.7073C20.2783 23.8294 20.1266 23.9178 19.9602 23.9639C19.7938 24.01 19.6182 24.0122 19.4507 23.9703L12.2061 22.1592C12.0702 22.1252 11.943 22.063 11.8326 21.9768L5 16.6339" stroke="#281724" stroke-width="2" stroke-linecap="round" stroke-linejoin="round"/>
<path d="M25.001 19.1078L19.501 15.1078L17.901 16.3078C17.2086 16.8271 16.3665 17.1078 15.501 17.1078C14.6355 17.1078 13.7934 16.8271 13.101 16.3078L12.4234 15.7996C12.3088 15.7136 12.214 15.604 12.1454 15.4782C12.0769 15.3525 12.0361 15.2134 12.026 15.0705C12.0158 14.9276 12.0365 14.7841 12.0866 14.6499C12.1367 14.5157 12.215 14.3938 12.3163 14.2925L17.2081 9.40068C17.301 9.30782 17.4112 9.23416 17.5326 9.18391C17.6539 9.13365 17.7839 9.10779 17.9152 9.10779H23.001" stroke="#281724" stroke-width="2" stroke-linecap="round" stroke-linejoin="round"/>
<path d="M9.07227 8.97376L15.4873 7.10356C15.7164 7.03676 15.9619 7.05412 16.1794 7.15253L20.5005 9.10773" stroke="#281724" stroke-width="2" stroke-linecap="round" stroke-linejoin="round"/>
<path d="M14 26.6077L10.2326 25.6658C10.0797 25.6276 9.938 25.5538 9.81907 25.4504L7 23" stroke="#281724" stroke-width="2" stroke-linecap="round" stroke-linejoin="round"/>
</svg>
