<svg width="46" height="46" viewBox="0 0 46 46" fill="none" xmlns="http://www.w3.org/2000/svg">
<path d="M23.3333 29.7497C27.2453 29.7497 30.4167 26.5784 30.4167 22.6663C30.4167 18.7543 27.2453 15.583 23.3333 15.583C19.4213 15.583 16.25 18.7543 16.25 22.6663C16.25 26.5784 19.4213 29.7497 23.3333 29.7497Z" stroke="white" stroke-width="2.83333" stroke-miterlimit="10"/>
<path d="M31.1243 6.375H15.541C10.8466 6.375 7.04102 10.1806 7.04102 14.875V30.4583C7.04102 35.1528 10.8466 38.9583 15.541 38.9583H31.1243C35.8188 38.9583 39.6243 35.1528 39.6243 30.4583V14.875C39.6243 10.1806 35.8188 6.375 31.1243 6.375Z" stroke="white" stroke-width="2.83333" stroke-linecap="round" stroke-linejoin="round"/>
<path d="M32.541 12.75C32.9322 12.75 33.249 13.0668 33.249 13.458C33.249 13.8492 32.9322 14.166 32.541 14.166C32.1498 14.166 31.833 13.8492 31.833 13.458C31.833 13.0668 32.1498 12.75 32.541 12.75Z" fill="#5E4C59" stroke="white" stroke-width="2.83333"/>
</svg>
