<svg width="52" height="40" viewBox="0 0 52 40" fill="none" xmlns="http://www.w3.org/2000/svg">
<path d="M26.3215 32.1451H22.6858L25.0995 34.5235H26.3215C26.6658 34.5235 26.9458 34.8036 26.9458 35.1477C26.9458 35.4919 26.6657 35.7715 26.3215 35.7715H25.0995V34.5235H22.7257V39.2861H25.0995V38.1454H26.3215C27.975 38.1454 29.3198 36.8006 29.3198 35.1477C29.3198 33.4949 27.975 32.1451 26.3215 32.1451ZM33.8 31.9857C31.6833 31.9857 29.9608 33.7083 29.9608 35.825C29.9608 37.9417 31.6833 39.6643 33.8 39.6643C35.9167 39.6643 37.6393 37.9417 37.6393 35.825C37.6393 33.7083 35.9167 31.9857 33.8 31.9857ZM33.8 37.2902C32.9909 37.2902 32.3348 36.6318 32.3348 35.825C32.3348 35.0182 32.9909 34.3598 33.8 34.3598C34.6091 34.3598 35.2653 35.0182 35.2653 35.825C35.2653 36.6318 34.6091 37.2902 33.8 37.2902ZM21.4597 32.1451V39.2861H19.0877V34.145H16.6591V39.2861H14.2871V32.1451H21.4597Z" fill="#FCC30F"/>
<path d="M42.4061 22.8604V30.0017H39.9434V27.3383H37.5804V30.0017H35.1163V22.8604H37.5804V25.3216H39.9434V22.8604H42.4061ZM2.48275 22.8598L2.38929 25.675C2.37635 26.1251 2.34616 26.5363 2.30015 26.8972C2.25414 27.2495 2.17074 27.5312 2.04997 27.7354C1.90044 27.987 1.6517 28.0675 1.28937 27.9899L1.07227 27.9439V29.9827L1.13409 29.9985C1.32388 30.046 1.50648 30.079 1.67614 30.1006C1.84437 30.1207 2.00684 30.1308 2.15637 30.1308C2.65097 30.1308 3.06362 30.0172 3.37994 29.7958C3.69482 29.5744 3.94069 29.294 4.11322 28.8842C4.28288 28.4817 4.40366 27.9957 4.47411 27.4392C4.54456 26.8871 4.59057 26.2645 4.6107 25.5902L4.63227 24.8526H6.08014V30H8.56177V22.8598H2.48275ZM12.1094 28.069V27.2526H15.4418V25.5074H12.1094V24.7908H15.8506V22.8604H9.64169V29.9994H15.9803V28.069H12.1094ZM23.6022 22.8602L21.4697 25.2505L19.3371 22.8602H16.7353V30.0001H19.2014V26.6215H19.2175L19.2244 26.6285L21.4628 28.8254L23.7288 26.5985L23.7311 26.6032V26.633L23.738 30.0001H26.2018V22.8602H23.6022ZM43.2331 26.2351V30.0001H45.5819V26.2351C45.5819 25.5748 46.1318 25.0365 46.792 25.0365C47.4522 25.0365 47.9928 25.5748 47.9928 26.2351V27.6337H45.6096L47.9422 30.0001H50.3623V26.2351C50.3623 24.2682 48.7589 22.6693 46.792 22.6693C44.8273 22.6693 43.2331 24.2682 43.2331 26.2351ZM30.6003 22.6693C28.6334 22.6693 27.0299 24.2682 27.0299 26.2351V30.0001H29.4501L31.7828 27.6337H29.3994V26.2351C29.3994 25.5748 29.9378 25.0365 30.6003 25.0365C31.2628 25.0365 31.8103 25.5748 31.8103 26.2351V30.0001H34.1591V26.2351C34.1591 24.2682 32.5649 22.6693 30.6003 22.6693Z" fill="#303739"/>
<path d="M29.3759 3.69897L26.394 7.99284L29.0917 10.6579V14.8248H23.3083L22.3379 19.2851H34.2868V8.5547L29.3759 3.69897Z" fill="#BC9748"/>
<path d="M22.3379 14.8239V19.2842L23.3085 14.8239H22.3379Z" fill="#816026"/>
<path d="M25.7148 7.31898L29.3759 3.69897L26.393 7.98948L25.7148 7.31898Z" fill="#816026"/>
<path d="M25.7147 0.0785522L17.1426 8.55427V19.2846H22.3378V14.8242V10.6573L25.7147 7.31835L29.3757 3.69853L25.7147 0.0785522Z" fill="#FCC22C"/>
</svg>
