<svg width="220" height="64" viewBox="0 0 220 64" fill="none" xmlns="http://www.w3.org/2000/svg">
<g clip-path="url(#clip0_47_4126)">
<path fill-rule="evenodd" clip-rule="evenodd" d="M41.3327 37.8213C38.6524 38.3912 35.6383 37.9921 32.4998 36.9571C18.3451 32.2889 1.66211 14.684 1.66211 14.684C23.9182 27.5736 46.0549 30.7413 51.0915 28.3417C56.1281 25.9422 59.2758 28.3417 59.2758 28.3417H61.2295L41.3331 37.821L41.3327 37.8213Z" fill="#F8A46E"/>
<path fill-rule="evenodd" clip-rule="evenodd" d="M14.8809 50.4242L32.5003 36.957C35.6388 37.992 38.6526 38.3912 41.3332 37.8213L14.8809 50.4242Z" fill="#FB924F"/>
</g>
<path d="M79.1134 22.6553C79.5553 22.6553 79.9134 23.0135 79.9134 23.4553V40.5265C79.9134 40.9683 79.5553 41.3265 79.1134 41.3265H76.8C76.3582 41.3265 76 40.9683 76 40.5265V23.4553C76 23.0135 76.3582 22.6553 76.8 22.6553H79.1134Z" fill="#FD8537"/>
<path d="M83.2283 25.91C82.7864 25.91 82.4283 25.5518 82.4283 25.11V23.4553C82.4283 23.0135 82.7864 22.6553 83.2283 22.6553H96.8302C97.272 22.6553 97.6302 23.0135 97.6302 23.4553V25.11C97.6302 25.5518 97.272 25.91 96.8302 25.91H92.7633C92.3215 25.91 91.9633 26.2682 91.9633 26.71V40.5265C91.9633 40.9683 91.6052 41.3265 91.1633 41.3265H88.8951C88.4533 41.3265 88.0951 40.9683 88.0951 40.5265V26.71C88.0951 26.2682 87.7369 25.91 87.2951 25.91H83.2283Z" fill="#FD8537"/>
<path d="M122.21 28.3053C122.311 28.7732 121.935 29.192 121.457 29.192H119.093C118.694 29.192 118.366 28.8944 118.249 28.513C118.172 28.2637 118.074 28.0312 117.954 27.8154C117.731 27.4082 117.445 27.0618 117.096 26.7761C116.746 26.4904 116.343 26.2716 115.885 26.1197C115.433 25.9677 114.942 25.8918 114.411 25.8918C113.453 25.8918 112.619 26.1318 111.908 26.612C111.197 27.0861 110.646 27.7789 110.254 28.6906C109.862 29.5962 109.667 30.6963 109.667 31.9909C109.667 33.322 109.862 34.4403 110.254 35.3459C110.652 36.2515 111.206 36.9353 111.917 37.3972C112.628 37.8591 113.45 38.0901 114.384 38.0901C114.909 38.0901 115.394 38.0202 115.839 37.8804C116.291 37.7406 116.692 37.537 117.042 37.2695C117.391 36.996 117.68 36.6648 117.909 36.2758C118.037 36.0645 118.143 35.8371 118.228 35.5935C118.356 35.227 118.68 34.9461 119.068 34.9478L121.459 34.9589C121.937 34.9611 122.31 35.381 122.194 35.8447C122.057 36.3904 121.855 36.923 121.588 37.4428C121.184 38.2329 120.639 38.941 119.952 39.567C119.271 40.1869 118.457 40.6792 117.511 41.0439C116.572 41.4025 115.508 41.5818 114.321 41.5818C112.67 41.5818 111.194 41.205 109.892 40.4513C108.597 39.6976 107.573 38.6067 106.82 37.1784C106.072 35.7501 105.699 34.0209 105.699 31.9909C105.699 29.9548 106.078 28.2226 106.838 26.7943C107.597 25.366 108.627 24.2781 109.929 23.5305C111.23 22.7769 112.694 22.4 114.321 22.4C115.394 22.4 116.388 22.552 117.304 22.8559C118.225 23.1598 119.042 23.6034 119.753 24.1869C120.464 24.7643 121.042 25.4724 121.488 26.3111C121.813 26.9132 122.053 27.5779 122.21 28.3053Z" fill="#FD8537"/>
<path d="M131.362 41.6C129.958 41.6 128.744 41.2992 127.72 40.6975C126.702 40.0897 125.915 39.2448 125.361 38.163C124.807 37.075 124.529 35.8139 124.529 34.3795C124.529 32.933 124.807 31.6688 125.361 30.5869C125.915 29.499 126.702 28.6542 127.72 28.0524C128.744 27.4447 129.958 27.1408 131.362 27.1408C132.766 27.1408 133.977 27.4447 134.995 28.0524C136.02 28.6542 136.809 29.499 137.363 30.5869C137.918 31.6688 138.195 32.933 138.195 34.3795C138.195 35.8139 137.918 37.075 137.363 38.163C136.809 39.2448 136.02 40.0897 134.995 40.6975C133.977 41.2992 132.766 41.6 131.362 41.6ZM131.38 38.5915C132.019 38.5915 132.552 38.4091 132.98 38.0445C133.408 37.6737 133.73 37.1693 133.947 36.5311C134.17 35.8929 134.281 35.1666 134.281 34.3522C134.281 33.5377 134.17 32.8114 133.947 32.1732C133.73 31.5351 133.408 31.0306 132.98 30.6599C132.552 30.2891 132.019 30.1037 131.38 30.1037C130.736 30.1037 130.193 30.2891 129.753 30.6599C129.32 31.0306 128.991 31.5351 128.768 32.1732C128.551 32.8114 128.443 33.5377 128.443 34.3522C128.443 35.1666 128.551 35.8929 128.768 36.5311C128.991 37.1693 129.32 37.6737 129.753 38.0445C130.193 38.4091 130.736 38.5915 131.38 38.5915Z" fill="#FD8537"/>
<path d="M141.498 41.3265C141.057 41.3265 140.698 40.9683 140.698 40.5265V28.1231C140.698 27.6813 141.057 27.3231 141.498 27.3231H143.631C144.073 27.3231 144.431 27.6813 144.431 28.1231V29.6838C144.431 29.7294 144.468 29.7664 144.514 29.7664C144.55 29.7664 144.583 29.742 144.593 29.7069C144.848 28.8673 145.267 28.2307 145.85 27.7972C146.447 27.3474 147.133 27.1225 147.911 27.1225C148.104 27.1225 148.311 27.1347 148.534 27.159C148.883 27.197 149.122 27.505 149.122 27.8557V29.9405C149.122 30.3213 148.749 30.6099 148.372 30.5596C148.052 30.517 147.76 30.4958 147.495 30.4958C146.929 30.4958 146.422 30.6203 145.977 30.8695C145.537 31.1127 145.187 31.453 144.928 31.8906C144.675 32.3282 144.549 32.8327 144.549 33.404V40.5265C144.549 40.9683 144.19 41.3265 143.749 41.3265H141.498Z" fill="#FD8537"/>
<path d="M156.793 41.6C155.365 41.6 154.136 41.3083 153.105 40.7248C152.081 40.1353 151.292 39.3026 150.737 38.2268C150.183 37.1449 149.906 35.8656 149.906 34.3886C149.906 32.9482 150.183 31.684 150.737 30.596C151.292 29.5081 152.072 28.6602 153.078 28.0524C154.09 27.4447 155.277 27.1408 156.639 27.1408C157.555 27.1408 158.408 27.2897 159.197 27.5875C159.992 27.8792 160.685 28.3199 161.276 28.9094C161.872 29.499 162.336 30.2405 162.668 31.1339C162.999 32.0213 163.165 33.0606 163.165 34.2519V34.5185C163.165 34.9604 162.806 35.3185 162.365 35.3185H152.242C151.801 35.3185 151.442 34.9604 151.442 34.5185V33.7117C151.442 33.2699 151.801 32.9117 152.242 32.9117H158.74C159.182 32.9117 159.554 32.548 159.45 32.1188C159.389 31.8719 159.299 31.6408 159.179 31.4257C158.938 30.9941 158.603 30.6568 158.176 30.4137C157.754 30.1645 157.263 30.0399 156.702 30.0399C156.118 30.0399 155.6 30.1767 155.148 30.4502C154.702 30.7176 154.353 31.0792 154.1 31.5351C153.846 31.9848 153.717 32.4863 153.711 33.0393V35.3277C153.711 36.0205 153.837 36.6192 154.09 37.1237C154.35 37.6281 154.714 38.0171 155.184 38.2906C155.654 38.5641 156.211 38.7009 156.856 38.7009C157.284 38.7009 157.676 38.6401 158.031 38.5185C158.387 38.397 158.691 38.2146 158.944 37.9715C159.059 37.8609 159.162 37.7389 159.252 37.6056C159.45 37.3135 159.763 37.0941 160.115 37.1175L162.165 37.254C162.65 37.2863 162.999 37.7444 162.818 38.1955C162.615 38.701 162.332 39.1613 161.972 39.5761C161.417 40.2143 160.7 40.7127 159.821 41.0712C158.947 41.4238 157.938 41.6 156.793 41.6Z" fill="#FD8537"/>
<path d="M172.44 41.3265C171.998 41.3265 171.64 40.9683 171.64 40.5265V23.4553C171.64 23.0135 171.998 22.6553 172.44 22.6553H174.753C175.195 22.6553 175.553 23.0135 175.553 23.4553V29.559C175.553 30.0008 175.912 30.359 176.353 30.359H182.698C183.14 30.359 183.498 30.0008 183.498 29.559V23.4553C183.498 23.0135 183.856 22.6553 184.298 22.6553H186.602C187.044 22.6553 187.402 23.0135 187.402 23.4553V40.5265C187.402 40.9683 187.044 41.3265 186.602 41.3265H184.298C183.856 41.3265 183.498 40.9683 183.498 40.5265V34.4137C183.498 33.9719 183.14 33.6137 182.698 33.6137H176.353C175.912 33.6137 175.553 33.9719 175.553 34.4137V40.5265C175.553 40.9683 175.195 41.3265 174.753 41.3265H172.44Z" fill="#FD8537"/>
<path d="M199.459 35.3641V28.1231C199.459 27.6813 199.817 27.3231 200.259 27.3231H202.509C202.951 27.3231 203.309 27.6813 203.309 28.1231V40.5265C203.309 40.9683 202.951 41.3265 202.509 41.3265H200.413C199.971 41.3265 199.613 40.9683 199.613 40.5265V38.8686C199.613 38.8213 199.574 38.7829 199.527 38.7829C199.491 38.7829 199.46 38.8049 199.447 38.8379C199.131 39.633 198.617 40.2741 197.904 40.7613C197.181 41.2597 196.299 41.5089 195.256 41.5089C194.328 41.5089 193.512 41.2961 192.807 40.8707C192.102 40.4452 191.551 39.8405 191.153 39.0564C190.761 38.2724 190.563 37.3334 190.556 36.2393V28.1231C190.556 27.6813 190.915 27.3231 191.356 27.3231H193.607C194.048 27.3231 194.407 27.6813 194.407 28.1231V35.5465C194.413 36.3731 194.633 37.0264 195.066 37.5066C195.5 37.9867 196.082 38.2268 196.811 38.2268C197.275 38.2268 197.709 38.1204 198.112 37.9077C198.516 37.6889 198.841 37.3668 199.088 36.9413C199.341 36.5159 199.465 35.9901 199.459 35.3641Z" fill="#FD8537"/>
<path d="M207.261 41.3265C206.819 41.3265 206.461 40.9683 206.461 40.5265V23.4553C206.461 23.0135 206.819 22.6553 207.261 22.6553H209.511C209.953 22.6553 210.311 23.0135 210.311 23.4553V29.6039C210.311 29.6433 210.343 29.6752 210.383 29.6752C210.411 29.6752 210.436 29.6587 210.448 29.6332C210.616 29.2699 210.853 28.901 211.161 28.5265C211.486 28.1315 211.908 27.8033 212.426 27.5419C212.95 27.2745 213.601 27.1408 214.378 27.1408C215.391 27.1408 216.325 27.4082 217.18 27.943C218.036 28.4718 218.72 29.2711 219.232 30.3408C219.744 31.4044 220 32.7385 220 34.343C220 35.9051 219.75 37.224 219.25 38.2997C218.756 39.3694 218.081 40.1808 217.225 40.7339C216.376 41.2809 215.424 41.5544 214.369 41.5544C213.622 41.5544 212.987 41.4298 212.462 41.1807C211.944 40.9315 211.519 40.6184 211.188 40.2416C210.874 39.8788 210.63 39.5133 210.457 39.1451C210.439 39.1079 210.402 39.0838 210.361 39.0838C210.304 39.0838 210.257 39.1305 210.257 39.188V40.5265C210.257 40.9683 209.899 41.3265 209.457 41.3265H207.261ZM210.23 34.3248C210.23 35.1575 210.344 35.8838 210.573 36.5037C210.802 37.1237 211.134 37.6069 211.568 37.9533C212.001 38.2937 212.529 38.4638 213.149 38.4638C213.776 38.4638 214.306 38.2906 214.74 37.9442C215.174 37.5917 215.502 37.1054 215.725 36.4855C215.954 35.8595 216.068 35.1392 216.068 34.3248C216.068 33.5165 215.957 32.8053 215.734 32.1915C215.511 31.5776 215.183 31.0975 214.749 30.751C214.315 30.4046 213.782 30.2314 213.149 30.2314C212.523 30.2314 211.992 30.3985 211.559 30.7328C211.131 31.0671 210.802 31.5411 210.573 32.155C210.344 32.7689 210.23 33.4921 210.23 34.3248Z" fill="#FD8537"/>
<defs>
<clipPath id="clip0_47_4126">
<rect width="59.5671" height="35.7403" fill="white" transform="translate(1.66211 14.684)"/>
</clipPath>
</defs>
</svg>
