<svg width="41" height="41" viewBox="0 0 41 41" fill="none" xmlns="http://www.w3.org/2000/svg">
<path d="M0.421875 12.1503C0.421875 8.89666 1.69082 5.84638 3.97492 3.55867C6.259 1.27095 9.30446 0 12.553 0H40.5205V6.20225H12.553C10.9795 6.20225 9.45675 6.81231 8.34008 7.98158C7.2234 9.10002 6.61431 10.6252 6.61431 12.2011L6.56356 22.5721C6.259 25.3173 4.2287 27.5543 1.53854 27.9609L0.421875 28.0626V12.1503Z" fill="#4C43ED"/>
<path d="M0.421875 40.1107V33.9593H28.4401C30.0136 33.9593 31.5363 33.3492 32.653 32.18C33.7696 31.0616 34.4296 29.5364 34.4296 27.9604V18.1487C34.4296 15.2001 36.6121 12.6582 39.5053 12.2515L40.5712 12.0989V27.9604C40.5712 31.214 39.3022 34.2644 37.0181 36.5521C34.734 38.8398 31.6886 40.1107 28.4401 40.1107H0.421875Z" fill="#4C43ED"/>
<path d="M24.1253 28.0626V20.1318L20.4706 24.5039L16.8161 20.1318V28.1133H11.9941V12.3536H16.5623L20.4706 17.3866L24.379 12.3536H28.9473V28.0626H24.1253Z" fill="#4C43ED"/>
</svg>
