<svg width="41" height="40" viewBox="0 0 41 40" fill="none" xmlns="http://www.w3.org/2000/svg">
<g clip-path="url(#clip0_35_277)">
<mask id="mask0_35_277" style="mask-type:luminance" maskUnits="userSpaceOnUse" x="0" y="0" width="41" height="40">
<path d="M40.4277 0H0.427734V40H40.4277V0Z" fill="white"/>
</mask>
<g mask="url(#mask0_35_277)">
<path d="M40.4277 0H0.427734V40H40.4277V0Z" fill="#FF0032"/>
<path d="M27.0742 3.07629V4.91717H31.0996V12.3052H33.3496V4.91717H37.3668V3.07629H27.0742Z" fill="white"/>
<path d="M12.6019 3.07629L9.65646 9.17984L6.71929 3.07629H3.50391V12.3052H5.76203V5.7026L8.63379 11.2825H10.6874L13.5591 5.7026V12.3052H15.8091V3.07629H12.6019Z" fill="white"/>
<path d="M35.1164 33.8474C35.0591 34.2156 34.9118 34.5183 34.6746 34.7474C34.4537 34.9601 34.1509 35.1156 33.7746 35.2056C33.4064 35.2874 32.8583 35.3365 32.2856 35.3365C31.6883 35.3365 31.1647 35.2628 30.7147 35.1074C30.281 34.9601 29.9374 34.6983 29.7001 34.3383C29.4547 33.9783 29.3319 33.4547 29.3319 32.7757V31.8347C29.3319 31.1638 29.4547 30.6402 29.7001 30.272C29.9456 29.912 30.281 29.6503 30.7147 29.503C31.1565 29.3476 31.6883 29.2739 32.2856 29.2739C32.8583 29.2739 33.4064 29.323 33.7746 29.4048C34.1509 29.4948 34.4537 29.642 34.6746 29.8629C34.9118 30.092 35.0591 30.3947 35.1164 30.7629H37.3663C37.3008 30.002 37.0473 29.3557 36.5973 28.8321C36.1882 28.3576 35.6155 28.0139 34.9037 27.8012C34.2164 27.5967 33.3082 27.4903 32.2856 27.4903C31.2056 27.4903 30.2728 27.6457 29.5038 27.9485C28.7266 28.2594 28.1211 28.7748 27.7038 29.4867C27.3029 30.1657 27.0984 31.082 27.082 32.1947V32.3011L27.2048 32.3093L27.082 32.3175V32.3257V32.4238C27.0984 33.5366 27.3029 34.4528 27.7038 35.1319C28.1211 35.8438 28.7266 36.3592 29.5038 36.6701C30.2728 36.9728 31.2056 37.1283 32.2856 37.1283C33.3082 37.1283 34.2164 37.0219 34.9037 36.8174C35.6155 36.6047 36.18 36.261 36.5973 35.7865C37.0473 35.271 37.309 34.6165 37.3663 33.8556H35.1164V33.8474Z" fill="white"/>
</g>
</g>
<defs>
<clipPath id="clip0_35_277">
<rect width="40" height="40" fill="white" transform="translate(0.427734)"/>
</clipPath>
</defs>
</svg>
