<svg width="32" height="32" viewBox="0 0 32 32" fill="none" xmlns="http://www.w3.org/2000/svg">
<path d="M16 28C22.6274 28 28 22.6274 28 16C28 9.37258 22.6274 4 16 4C9.37258 4 4 9.37258 4 16C4 22.6274 9.37258 28 16 28Z" stroke="#281724" stroke-width="2" stroke-linecap="round" stroke-linejoin="round"/>
<path d="M16 24C16.8284 24 17.5 23.3284 17.5 22.5C17.5 21.6716 16.8284 21 16 21C15.1716 21 14.5 21.6716 14.5 22.5C14.5 23.3284 15.1716 24 16 24Z" fill="#281724"/>
<path d="M16 18.0005V17.0005C16.6922 17.0005 17.3689 16.7952 17.9445 16.4106C18.5201 16.026 18.9687 15.4794 19.2336 14.8399C19.4985 14.2003 19.5678 13.4966 19.4327 12.8177C19.2977 12.1387 18.9644 11.5151 18.4749 11.0256C17.9854 10.5361 17.3618 10.2028 16.6828 10.0677C16.0039 9.93269 15.3002 10.002 14.6606 10.2669C14.0211 10.5318 13.4744 10.9804 13.0899 11.556C12.7053 12.1316 12.5 12.8083 12.5 13.5005" stroke="#281724" stroke-width="2" stroke-linecap="round" stroke-linejoin="round"/>
</svg>
