<svg width="40" height="40" viewBox="0 0 40 40" fill="none" xmlns="http://www.w3.org/2000/svg">
<g clip-path="url(#clip0_35_298)">
<path d="M5.99361 12.2728H0V18.3744H5.99361V12.2728Z" fill="#FF3495"/>
<path d="M23.324 28.8983H39.6066V35H23.324V28.8983ZM30.6634 14.9722C32.5106 14.9722 34.007 16.4955 34.007 18.3761C34.007 20.2566 32.5106 21.78 30.6634 21.78H23.324V27.8816H30.6634C34.634 27.8816 38.0344 25.3455 39.3812 21.78C39.7817 20.7222 40.0006 19.575 40.0006 18.3761C40.0006 13.135 35.8122 8.87054 30.6634 8.87054C25.5145 8.87054 21.3262 13.1344 21.3262 18.3761H27.3197C27.3197 16.4955 28.8161 14.9722 30.6634 14.9722Z" fill="#222222"/>
<path d="M12.9877 28.8984H22.325V35H16.3314C11.1749 35 6.99414 30.7439 6.99414 25.4944V5H12.9877V12.2744H19.9806V18.3761H12.9877V28.8984Z" fill="#222222"/>
</g>
<defs>
<clipPath id="clip0_35_298">
<rect width="40" height="40" fill="white"/>
</clipPath>
</defs>
</svg>
