<svg width="46" height="46" viewBox="0 0 46 46" fill="none" xmlns="http://www.w3.org/2000/svg">
<path d="M16.2471 23.8838L32.1699 37.8959C32.3542 38.058 32.5773 38.1695 32.8176 38.2194C33.0579 38.2694 33.307 38.256 33.5406 38.1807C33.7742 38.1054 33.9841 37.9707 34.15 37.7898C34.3158 37.6089 34.4319 37.388 34.4867 37.1488L41.1474 8.0837C41.205 7.8324 41.193 7.57015 41.1125 7.32521C41.0321 7.08027 40.8863 6.86193 40.6909 6.69371C40.4956 6.52549 40.258 6.41377 40.0038 6.37059C39.7497 6.32742 39.4885 6.35442 39.2486 6.44869L6.56663 19.288C6.2818 19.3999 6.04086 19.601 5.87986 19.8613C5.71887 20.1215 5.64647 20.4269 5.67351 20.7318C5.70055 21.0366 5.82557 21.3245 6.02986 21.5523C6.23415 21.7802 6.50672 21.9357 6.8068 21.9957L16.2471 23.8838Z" stroke="white" stroke-width="2.83333" stroke-linecap="round" stroke-linejoin="round"/>
<path d="M16.25 23.8844L40.3532 6.47656" stroke="white" stroke-width="2.83333" stroke-linecap="round" stroke-linejoin="round"/>
<path d="M24.2023 30.8818L18.6684 36.4157C18.4703 36.6138 18.2179 36.7487 17.943 36.8034C17.6682 36.8581 17.3834 36.83 17.1245 36.7228C16.8657 36.6156 16.6444 36.434 16.4888 36.201C16.3331 35.9681 16.25 35.6942 16.25 35.414V23.8838" stroke="white" stroke-width="2.83333" stroke-linecap="round" stroke-linejoin="round"/>
</svg>
