<svg width="40" height="40" viewBox="0 0 40 40" fill="none" xmlns="http://www.w3.org/2000/svg">
<g clip-path="url(#clip0_35_241)">
<mask id="mask0_35_241" style="mask-type:alpha" maskUnits="userSpaceOnUse" x="0" y="0" width="40" height="40">
<path d="M0 11.3778C0 7.39518 0 5.40388 0.775065 3.88273C1.45683 2.54469 2.54469 1.45683 3.88273 0.775065C5.40388 0 7.39518 0 11.3778 0H28.6222C32.6048 0 34.5961 0 36.1173 0.775065C37.4553 1.45683 38.5432 2.54469 39.2249 3.88273C40 5.40388 40 7.39518 40 11.3778V28.6222C40 32.6048 40 34.5961 39.2249 36.1173C38.5432 37.4553 37.4553 38.5432 36.1173 39.2249C34.5961 40 32.6048 40 28.6222 40H11.3778C7.39518 40 5.40388 40 3.88273 39.2249C2.54469 38.5432 1.45683 37.4553 0.775065 36.1173C0 34.5961 0 32.6048 0 28.6222V11.3778Z" fill="#FF0000"/>
</mask>
<g mask="url(#mask0_35_241)">
<rect width="40" height="40" fill="url(#paint0_linear_35_241)"/>
<path d="M29.7153 14.7856C28.382 14.7856 27.1778 15.1865 26.1498 15.8726V9.61023H23.3055V21.1594C23.3055 24.6732 26.181 27.5009 29.6997 27.5009C33.2184 27.5009 36.1266 24.6901 36.1266 21.127C36.1266 17.5638 33.2823 14.7856 29.7153 14.7856ZM16.8077 21.9754L14.2049 15.2345H12.2126L9.59416 21.9754L6.97571 15.2345H3.87305L8.4525 27.0872H10.4447L13.1924 20.0273L15.9557 27.0872H17.9479L22.5118 15.2345H19.4261L16.8077 21.9754ZM29.7011 24.6746C27.7728 24.6746 26.1498 23.1415 26.1498 21.1439C26.1498 19.1463 27.6762 17.6302 29.7168 17.6302C31.7573 17.6302 33.2838 19.2113 33.2838 21.1439C33.2838 23.0766 31.6607 24.6746 29.7011 24.6746Z" fill="white"/>
</g>
</g>
<defs>
<linearGradient id="paint0_linear_35_241" x1="40" y1="0" x2="24.8714" y2="47.8616" gradientUnits="userSpaceOnUse">
<stop stop-color="#F523C5"/>
<stop offset="0.0638696" stop-color="#ED23C8"/>
<stop offset="0.13611" stop-color="#E423CC"/>
<stop offset="0.222798" stop-color="#D923D0"/>
<stop offset="0.300198" stop-color="#CF23D3"/>
<stop offset="0.384822" stop-color="#C523D7"/>
<stop offset="0.491118" stop-color="#B723DD"/>
<stop offset="0.588126" stop-color="#AB23E1"/>
<stop offset="0.701647" stop-color="#9D23E7"/>
<stop offset="0.851287" stop-color="#8A23EE"/>
<stop offset="1" stop-color="#7723F5"/>
</linearGradient>
<clipPath id="clip0_35_241">
<rect width="40" height="40" fill="white"/>
</clipPath>
</defs>
</svg>
