<svg width="46" height="46" viewBox="0 0 46 46" fill="none" xmlns="http://www.w3.org/2000/svg">
<path d="M28.5 22.6667L20 17V28.3333L28.5 22.6667Z" stroke="white" stroke-width="2.83333" stroke-linecap="round" stroke-linejoin="round"/>
<path d="M4.41602 22.6669C4.41602 27.9361 4.96039 31.0277 5.37423 32.6167C5.48485 33.0506 5.69728 33.452 5.99393 33.7875C6.29057 34.123 6.66289 34.3829 7.08004 34.5459C13.0082 36.824 22.8327 36.7614 22.8327 36.7614C22.8327 36.7614 32.657 36.824 38.5853 34.5459C39.0024 34.383 39.3747 34.123 39.6714 33.7875C39.968 33.452 40.1805 33.0506 40.2911 32.6167C40.7049 31.0278 41.2493 27.9362 41.2493 22.6669C41.2493 17.3977 40.705 14.3062 40.2911 12.7172C40.1805 12.2833 39.9681 11.8819 39.6714 11.5464C39.3748 11.2109 39.0025 10.9509 38.5853 10.788C32.6571 8.50988 22.8327 8.57244 22.8327 8.57244C22.8327 8.57244 13.0084 8.50988 7.08009 10.788C6.66295 10.9509 6.29063 11.2109 5.99398 11.5464C5.69733 11.8819 5.48489 12.2832 5.37427 12.7172C4.96042 14.3061 4.41602 17.3977 4.41602 22.6669Z" stroke="white" stroke-width="2.83333" stroke-linecap="round" stroke-linejoin="round"/>
</svg>
